<svg width="36" height="36" viewBox="0 0 36 36" fill="none" xmlns="http://www.w3.org/2000/svg">
<circle cx="18" cy="18" r="18" fill="#C4C4C4"/>
<path d="M9.67438 21.292C9.67438 21.992 9.64638 22.412 9.56238 22.958C10.0524 22.93 10.4304 22.916 11.1024 22.916H13.4684C14.8684 22.916 16.0304 22.496 16.8704 21.67C17.8364 20.732 18.3684 19.276 18.3684 17.526C18.3684 14.18 16.5904 12.276 13.4684 12.276H11.1024C10.4304 12.276 10.0524 12.262 9.56238 12.234C9.64638 12.822 9.67438 13.228 9.67438 13.83V21.292ZM10.7664 21.936V13.256H13.4964C14.6444 13.256 15.5124 13.564 16.1284 14.208C16.8704 14.95 17.2344 16.07 17.2344 17.526C17.2344 18.968 16.8284 20.158 16.0584 20.942C15.4284 21.614 14.5464 21.936 13.4404 21.936H10.7664ZM22.3898 17.862H25.6658C26.3938 17.862 26.7998 17.89 27.2618 17.96V16.784C26.7438 16.854 26.3378 16.882 25.6658 16.882H22.3898V13.27H26.4218C27.1637 13.27 27.5698 13.298 28.0318 13.368V12.178C27.4998 12.248 27.1078 12.276 26.4218 12.276H22.7118C22.0398 12.276 21.6618 12.262 21.1718 12.234C21.2558 12.78 21.2838 13.228 21.2838 13.83V21.278C21.2838 22.006 21.2558 22.44 21.1718 22.916H22.5018C22.4178 22.412 22.3898 22.034 22.3898 21.278V17.862Z" fill="white"/>
</svg>
