<?xml version="1.0" encoding="utf-8"?>
<!-- Svg Vector Icons : http://www.onlinewebfonts.com/icon -->
<!DOCTYPE svg PUBLIC "-//W3C//DTD SVG 1.1//EN" "http://www.w3.org/Graphics/SVG/1.1/DTD/svg11.dtd">
<svg fill="#9a9a9a" version="1.1" xmlns="http://www.w3.org/2000/svg" xmlns:xlink="http://www.w3.org/1999/xlink" x="0px" y="0px" viewBox="0 0 1000 1000" enable-background="new 0 0 1000 1000" xml:space="preserve">
<metadata> Svg Vector Icons : http://www.onlinewebfonts.com/icon </metadata>
<g><path d="M813.1,215.9l111,127.3h-91.4c-10.8,0-19.6-8.8-19.6-19.6V215.9L813.1,215.9z"/><path d="M969.8,343.2c-0.1-5-1.9-9.9-5.7-13.7L827,172.4c-4.5-4.5-10.7-6.3-16.5-5.5H362.4c-32.5,0-58.8,26.3-58.8,58.8v705.5c0,32.5,26.3,58.8,58.8,58.8h548.8c32.5,0,58.8-26.3,58.8-58.8V343.2H969.8z M908.3,904.2c0,10-8.1,18.1-18.1,18.1H383.3c-10,0-18.1-8.1-18.1-18.1V252.5c0-10,8.1-18.1,18.1-18.1h380.1V343c0,30,24.3,54.3,54.3,54.3h90.5V904.2z"/><path d="M92.4,705.5V94.6c0-10.8,8.8-19.6,19.6-19.6l477.1-0.1c10.8,0,19.6,8.8,19.6,19.6v33l67.3,0.1V68.8c0-32.5-26.3-58.8-58.8-58.8H88.9C56.4,10,30,36.3,30,68.8v666.3c0,32.5,26.3,58.8,58.8,58.8h175.6v-68.8H112C101.2,725.2,92.4,716.4,92.4,705.5L92.4,705.5z"/><path d="M667.2,394.8h-61.1v153h-153V609h153v153h61.2V609h153v-61.2h-153v-153H667.2z"/></g>
</svg>