<svg width="13" height="18" viewBox="0 0 13 18" fill="none" xmlns="http://www.w3.org/2000/svg">
<path d="M10.829 2.2074H8.52012C8.34994 1.0726 7.36877 0.199219 6.18771 0.199219C5.00644 0.199219 4.02548 1.0726 3.8553 2.2074H1.54666C0.693866 2.2074 0 2.90148 0 3.7547V5.61646C0 5.81083 0.157658 5.96849 0.351813 5.96849H0.750521V15.431C0.750521 16.7368 1.81233 17.7992 3.11773 17.7992H9.25791C10.5633 17.7992 11.6253 16.7368 11.6253 15.431V5.96849H12.0238C12.2182 5.96849 12.3758 5.81083 12.3758 5.61646V3.7547C12.3758 2.90148 11.682 2.2074 10.829 2.2074ZM6.18771 0.90327C6.97961 0.90327 7.64334 1.46282 7.80482 2.2074H4.5706C4.73208 1.46282 5.3956 0.90327 6.18771 0.90327ZM10.9215 15.431C10.9215 16.3487 10.1752 17.0952 9.25791 17.0952H3.11773C2.20042 17.0952 1.45415 16.3487 1.45415 15.431V5.96849H10.9215V15.431ZM11.672 5.26444H0.703627V3.7547C0.703627 3.28979 1.08196 2.91145 1.54666 2.91145H10.829C11.2939 2.91145 11.672 3.28979 11.672 3.7547V5.26444ZM3.1086 14.7392V7.34052C3.1086 7.14636 3.26626 6.98849 3.46042 6.98849C3.65478 6.98849 3.81223 7.14636 3.81223 7.34052V14.7392C3.81223 14.9336 3.65478 15.0912 3.46042 15.0912C3.26626 15.0912 3.1086 14.9336 3.1086 14.7392ZM5.92566 14.7392V7.34052C5.92566 7.14636 6.0831 6.98849 6.27747 6.98849C6.47162 6.98849 6.62928 7.14636 6.62928 7.34052V14.7392C6.62928 14.9336 6.47162 15.0912 6.27747 15.0912C6.0831 15.0912 5.92566 14.9336 5.92566 14.7392ZM8.74292 14.7392V7.34052C8.74292 7.14636 8.90058 6.98849 9.09473 6.98849C9.28889 6.98849 9.44655 7.14636 9.44655 7.34052V14.7392C9.44655 14.9336 9.28889 15.0912 9.09473 15.0912C8.90058 15.0912 8.74292 14.9336 8.74292 14.7392Z" fill="#9AA7B1"/>
</svg>
