<svg width="18" height="19" viewBox="0 0 18 19" fill="none" xmlns="http://www.w3.org/2000/svg">
<path d="M17.2893 3.99666L9.57497 0.135908C9.39646 0.0465318 9.1996 0 9 0C8.8004 0 8.60354 0.0465318 8.42503 0.135908L0.710743 3.99666C0.497179 4.10353 0.317566 4.26781 0.192032 4.4711C0.0664979 4.67439 3.47281e-06 4.90866 0 5.14764V13.8524C2.34329e-05 14.0913 0.0665256 14.3256 0.192057 14.5289C0.317588 14.7322 0.49719 14.8965 0.710743 15.0034L8.42503 18.8641C8.60355 18.9535 8.80041 19 9 19C9.19959 19 9.39645 18.9535 9.57497 18.8641L17.2893 15.0034C17.5028 14.8965 17.6824 14.7322 17.8079 14.5289C17.9335 14.3256 18 14.0913 18 13.8524V5.14764C18 4.90866 17.9335 4.67439 17.808 4.4711C17.6824 4.26781 17.5028 4.10353 17.2893 3.99666ZM6.26252 6.79361L13.1328 3.35521L15.9069 4.74355L9 8.13964L6.26252 6.79361ZM9 1.28689L11.6953 2.63584L4.81233 6.08066L2.09314 4.74365L9 1.28689ZM1.28571 5.7804L4.17857 7.20285V10.7869C4.17857 10.9576 4.2463 11.1212 4.36686 11.2419C4.48742 11.3626 4.65093 11.4304 4.82143 11.4304C4.99192 11.4304 5.15544 11.3626 5.276 11.2419C5.39656 11.1212 5.46429 10.9576 5.46429 10.7869V7.83496L8.35714 9.25737V17.3914L1.28571 13.8524V5.7804ZM9.64286 17.3914V9.25737L16.7143 5.7804V13.8524L9.64286 17.3914Z" fill="#343741"/>
</svg>
