<svg width="20" height="20" viewBox="0 0 20 20" fill="none" xmlns="http://www.w3.org/2000/svg">
<path d="M15.7143 1.42857H1.42857V17.1429H7.14286V18.5714H0V17.1429V1.42857V0H17.1429V1.42857V7.14286H15.7143V1.42857ZM5.71429 5.71429H14.2843V4.28571H5.71429V5.71429ZM2.85714 5.71429V4.28571H4.28571V5.71429H2.85714ZM5.71429 10V8.57143H14.2857V10H5.71429ZM2.85714 10V8.57143H4.28571V10H2.85714ZM5.71429 14.2857V12.8571H10V14.2857H5.71429ZM2.85714 14.2857V12.8571H4.28571V14.2857H2.85714ZM9.28857 16.3L17.0186 8.57143L20 11.5529L12.2714 19.2814L8.57143 20L9.28857 16.3Z" fill="#343741"/>
</svg>
