<svg width="66" height="66" viewBox="0 0 66 66" fill="none" xmlns="http://www.w3.org/2000/svg">
<path d="M39.8679 42.726H26.518V22.0275H39.8679V42.726ZM33.0369 45.7077C32.3308 45.7077 31.7582 45.1378 31.7582 44.4345C31.7582 43.7312 32.3308 43.1605 33.0369 43.1605C33.743 43.1605 34.3157 43.7312 34.3157 44.4345C34.3157 45.1378 33.743 45.7077 33.0369 45.7077ZM31.6014 20.4455H34.4717C34.7123 20.4455 34.9083 20.6394 34.9083 20.8794C34.9083 21.12 34.7123 21.3145 34.4717 21.3145H31.6014C31.3608 21.3145 31.1648 21.12 31.1648 20.8794C31.1648 20.6394 31.3608 20.4455 31.6014 20.4455ZM38.5582 19.8027H27.5156C26.2753 19.8027 25.2695 20.8044 25.2695 22.0385V43.9684C25.2695 45.2038 26.2753 46.2055 27.5156 46.2055H38.5582C39.7985 46.2055 40.8043 45.2038 40.8043 43.9684V22.0385C40.8043 20.8044 39.7985 19.8027 38.5582 19.8027Z" fill="#0D4740"/>
<path d="M33.0369 43.7986C32.6595 43.7986 32.3535 44.1038 32.3535 44.4792C32.3535 44.8553 32.6595 45.1598 33.0369 45.1598C33.4143 45.1598 33.7203 44.8553 33.7203 44.4792C33.7203 44.1038 33.4143 43.7986 33.0369 43.7986Z" fill="#0D4740"/>
</svg>
