<svg width="30" height="30" viewBox="0 0 30 30" fill="none" xmlns="http://www.w3.org/2000/svg">
<g clip-path="url(#clip0_3619_20989)">
<rect width="30" height="30" rx="15" fill="white"/>
<path d="M15 -0.1875C6.6257 -0.1875 -0.1875 6.6257 -0.1875 15C-0.1875 23.3743 6.6257 30.1875 15 30.1875C23.3743 30.1875 30.1875 23.3743 30.1875 15C30.1875 6.6257 23.3743 -0.1875 15 -0.1875ZM20.4989 18.8473C20.6119 18.9547 20.7024 19.0836 20.7648 19.2265C20.8272 19.3694 20.8604 19.5233 20.8624 19.6793C20.8644 19.8352 20.8352 19.9899 20.7764 20.1344C20.7177 20.2788 20.6306 20.4101 20.5203 20.5203C20.4101 20.6306 20.2788 20.7177 20.1344 20.7764C19.9899 20.8352 19.8352 20.8644 19.6793 20.8624C19.5233 20.8604 19.3694 20.8272 19.2265 20.7648C19.0836 20.7024 18.9547 20.6119 18.8473 20.4989L15 16.6524L11.1527 20.4989C10.9319 20.7087 10.6378 20.824 10.3331 20.8201C10.0285 20.8162 9.73741 20.6934 9.52198 20.478C9.30655 20.2626 9.1838 19.9715 9.1799 19.6669C9.176 19.3622 9.29126 19.0681 9.5011 18.8473L13.3476 15L9.5011 11.1527C9.29126 10.9319 9.176 10.6378 9.1799 10.3331C9.1838 10.0285 9.30655 9.73741 9.52198 9.52198C9.73741 9.30655 10.0285 9.1838 10.3331 9.1799C10.6378 9.176 10.9319 9.29126 11.1527 9.5011L15 13.3476L18.8473 9.5011C19.0681 9.29126 19.3622 9.176 19.6669 9.1799C19.9715 9.1838 20.2626 9.30655 20.478 9.52198C20.6934 9.73741 20.8162 10.0285 20.8201 10.3331C20.824 10.6378 20.7087 10.9319 20.4989 11.1527L16.6524 15L20.4989 18.8473Z" fill="#BDBDBD"/>
</g>
<defs>
<clipPath id="clip0_3619_20989">
<rect width="30" height="30" rx="15" fill="white"/>
</clipPath>
</defs>
</svg>