<svg width="52" height="52" viewBox="0 0 52 52" fill="none" xmlns="http://www.w3.org/2000/svg">
<path d="M34.0549 24.6253L32.1607 22.2972C32.0583 22.1737 31.9749 21.9413 31.9744 21.7804V19.649H31.9733C31.9619 19.3624 31.7377 19.1333 31.462 19.1333C31.1868 19.1333 30.9625 19.3624 30.9512 19.649H30.9501V21.0643C30.9501 21.0654 30.9495 21.0654 30.9495 21.0665C30.403 20.5953 29.6923 20.3098 28.915 20.3098C28.9102 20.3098 28.9053 20.3098 28.9004 20.3103C28.8955 20.3098 28.8907 20.3098 28.8858 20.3098C28.108 20.3098 27.3973 20.5953 26.8513 21.0665C26.8508 21.0654 26.8502 21.0654 26.8502 21.0643V19.649H26.8491C26.8378 19.3624 26.614 19.1333 26.3383 19.1333C26.0626 19.1333 25.8384 19.3624 25.827 19.649H25.8259V21.7804C25.8254 21.9413 25.742 22.1737 25.6401 22.2972L23.7454 24.6253C23.7454 24.6253 18.5134 30.9687 23.3592 32.5341C23.6305 32.6213 24.0877 32.7118 24.4853 32.7118H33.3155C33.7126 32.7118 34.1698 32.6213 34.4411 32.5341C39.2869 30.9687 34.0549 24.6253 34.0549 24.6253ZM28.9004 30.3875C26.9499 30.3875 25.3693 28.8048 25.3693 26.8526C25.3693 24.8999 26.9499 23.3171 28.9004 23.3171C30.8504 23.3171 32.4315 24.8999 32.4315 26.8526C32.4315 28.8048 30.8504 30.3875 28.9004 30.3875Z" fill="#0D4740"/>
<path d="M21.0282 21.9993C21.3987 22.1938 21.8065 22.2864 22.2123 22.3444C22.7295 22.418 23.2566 22.398 23.7717 22.3162C24.0843 22.2669 24.4071 22.1282 24.542 21.8022C24.5994 21.664 24.6335 21.5129 24.6519 21.3596H20.564C20.6387 21.631 20.7839 21.871 21.0282 21.9993Z" fill="#0D4740"/>
<path d="M33.3551 21.8022C33.49 22.1282 33.8128 22.2669 34.1253 22.3162C34.6399 22.398 35.1675 22.4186 35.6848 22.3444C36.0905 22.2864 36.4984 22.1943 36.8689 21.9993C37.1132 21.871 37.2583 21.6315 37.3331 21.3596H33.2451C33.263 21.5135 33.2977 21.664 33.3551 21.8022Z" fill="#0D4740"/>
<path d="M37.3492 20.3217C37.3097 20.0053 37.2593 19.6684 37.1715 19.3819C37.0941 19.1273 37.0118 18.8738 36.9191 18.6246C36.7274 18.1084 36.5075 17.596 36.1603 17.1784C35.8006 16.745 35.2974 16.498 34.7996 16.3014C34.4107 16.1481 34.0082 16.0198 33.6063 15.9136C32.9319 15.7359 32.2386 15.6233 31.549 15.5442C30.9229 15.4732 30.2924 15.4624 29.6635 15.4586C29.6202 15.4586 29.4728 15.4467 28.9485 15.458C28.4247 15.4467 28.2768 15.4586 28.234 15.4586C27.6052 15.4618 26.9747 15.4732 26.3485 15.5442C25.6584 15.6233 24.9656 15.7359 24.2913 15.9136C23.8888 16.0198 23.4869 16.1481 23.098 16.3014C22.6002 16.498 22.097 16.745 21.7373 17.1784C21.3901 17.596 21.1696 18.1084 20.9779 18.6246C20.8858 18.8738 20.8035 19.1273 20.726 19.3819C20.6383 19.6684 20.5873 20.0053 20.5483 20.3217H24.5951C24.568 20.1072 24.5496 19.8932 24.5773 19.6695C24.6222 19.2995 24.7674 18.9383 25.035 18.6923C25.3123 18.4372 25.6395 18.2948 25.9888 18.1962C26.374 18.0878 26.7683 18.0169 27.1637 17.966C27.3901 17.9367 27.6165 17.9129 27.8435 17.8928C28.1376 17.8668 28.4334 17.8598 28.7291 17.8593V17.8598C28.7822 17.8598 28.8353 17.8603 28.8889 17.8603C28.909 17.8603 28.9285 17.8598 28.9485 17.8598C28.9685 17.8598 28.9886 17.8598 29.0086 17.8603C29.0617 17.8603 29.1148 17.8598 29.1684 17.8598V17.8593C29.4642 17.8598 29.7594 17.8668 30.0535 17.8928C30.281 17.9129 30.5074 17.9367 30.7338 17.966C31.1287 18.0169 31.523 18.0878 31.9082 18.1962C32.2575 18.2948 32.5847 18.4372 32.862 18.6923C33.1296 18.9383 33.2748 19.2995 33.3203 19.6695C33.3474 19.8932 33.3295 20.1072 33.3024 20.3217H37.3492ZM22.7508 18.8879C22.3803 18.8879 22.0796 18.5867 22.0796 18.2157C22.0796 17.8446 22.3803 17.5435 22.7508 17.5435C23.1218 17.5435 23.4224 17.8446 23.4224 18.2157C23.4224 18.5867 23.1218 18.8879 22.7508 18.8879Z" fill="#0D4740"/>
</svg>
