<svg width="21" height="19" viewBox="0 0 21 19" fill="none" xmlns="http://www.w3.org/2000/svg">
<path d="M15.3442 17.4097H1.39494V6.9617H6.7654V1.59123H15.3442V2.96661L16.7392 1.62749V0.196289H6.7654L1.39494 5.56675L0 6.9617V18.8047H16.7392V10.5913L15.3442 12.0448V17.4097Z" fill="white"/>
<path d="M20.8608 3.87216L18.7556 1.76703C18.5702 1.58156 18.2695 1.58156 18.0841 1.76703L9.19621 10.3029C9.14108 10.358 9.10039 10.4258 9.07771 10.5004L8.00269 14.0325C7.89207 14.396 8.23181 14.7357 8.59524 14.6251L12.241 13.5155L20.8608 4.54371C21.0462 4.35828 21.0462 4.05759 20.8608 3.87216ZM10.0071 13.3283L9.31486 12.5717L9.79467 10.9947L10.9898 11.6378L11.633 12.8332L10.0071 13.3283ZM19.5248 3.53596L11.9524 11.1565L11.4713 10.6754L19.0922 3.10267L19.5248 3.53522C19.5248 3.53555 19.5248 3.53571 19.5248 3.53596Z" fill="white"/>
</svg>
