<svg xmlns="http://www.w3.org/2000/svg" viewBox="0 0 304.96 103.55"><defs><style>.cls-1{fill:#231815;}.cls-2{fill:#ca2639;}</style></defs><g id="レイヤー_2" data-name="レイヤー 2"><g id="レイヤー_1-2" data-name="レイヤー 1"><path class="cls-1" d="M219.16,57.14H229.6v3.13H219.16Z"/><path class="cls-1" d="M233.48,71a34.88,34.88,0,0,0,.89-4.36V66.5H235l.08.07c1.3,2.5,4.36,4.52,6.67,4.52a4.76,4.76,0,0,0,4.89-4.89c0-3.58-2.16-4.88-5-6-3.54-1.49-7.46-3.66-7.46-8.28A7.6,7.6,0,0,1,239,45.06a9.81,9.81,0,0,1,3.77-.75c5.07,0,6.9,2,6.93,2h0v.23a26.8,26.8,0,0,0-.89,4.29V51h-.71l0-.08c-1.16-2.61-3.39-4.4-5.67-4.4a5.42,5.42,0,0,0-2.53.52A4.47,4.47,0,0,0,238,50.72c0,3.44,2.91,4.67,5.11,5.49,3.47,1.3,7.8,3.65,7.8,8.72s-4.18,8.36-9.51,8.36a14.43,14.43,0,0,1-7.87-2l-.07,0Z"/><path class="cls-1" d="M253.57,72.73c4.33-9.48,8.58-18.84,12.68-28.35l0-.07h1.42l0,.07c4,9.4,9.59,24,11.75,28.35l.11.26-.29,0a19.32,19.32,0,0,0-2.54-.11,13.82,13.82,0,0,0-2.13.11h-.15l0-.11c-.26-.93-1.23-4.29-3.28-9.81-1.09-.07-3.32-.11-4.93-.11-1.45,0-4.29,0-5.4.11a98.16,98.16,0,0,0-3.55,9.81l0,.15-.15,0a10.67,10.67,0,0,0-1.87-.11,6.8,6.8,0,0,0-1.49.11l-.3.07ZM266,60.83c1.19,0,2.91,0,4.25-.11-1.12-2.87-2.46-6.27-4.1-10l-4.4,10C262.86,60.76,264.87,60.83,266,60.83Z"/><path class="cls-1" d="M283.89,45v-.3l.19,0c.48.07,1.71.11,2.23.11s1.64,0,2.17-.11l.18,0v.34a65.4,65.4,0,0,0-.37,8.54V64.11a64.13,64.13,0,0,0,.45,8.54V73l-.19,0c-.48-.07-1.71-.11-2.24-.11s-1.64,0-2.16.11L284,73v-.34a63.84,63.84,0,0,0,.38-8.54V53.6a64.13,64.13,0,0,0-.45-8.54Z"/><path class="cls-1" d="M294.52,57.14H305v3.13H294.52Z"/><path class="cls-1" d="M135.16,103.55V97.11a15.58,15.58,0,0,1-4.2,3.38l-.76-1.21a12.55,12.55,0,0,0,5.73-5.1h-5.34V93.06h10.5v1.12h-3.73a9,9,0,0,1-.88,1.53v7.84Zm5.43-3A21.22,21.22,0,0,1,136.71,97l1-.69a18.93,18.93,0,0,0,3.76,3.27Z"/><path class="cls-1" d="M150.76,102.2h.12c1.55,0,1.66,0,1.66-3.88V95.88h-.94c0,3.11-.47,5.77-2.16,7.67l-1-.9.2-.25a40.39,40.39,0,0,1-5.71.74l-.22-1.14a25.4,25.4,0,0,0,2.62-.15v-.77h-2.24v-.85h2.24v-.65h-2.16V95.77h2.16v-.55H142.8v-.89h2.55v-.57c-.54,0-1.35.06-2,.06l-.35-1h.41a20.87,20.87,0,0,0,4.87-.42l.45.87s-1.15.25-2.18.35v.67H149v.89h-2.4v.55h2.2v3.81h-2.2v.65h2.25v.85h-2.25v.65c1.26-.14,2.37-.36,2.37-.36l.06.53c1.08-1.59,1.38-3.47,1.38-6H149.2V94.79h1.19V92.31h1.22v2.48h2.14v.69c0,7.22,0,7.71-2.41,7.92Zm-5.36-5.64h-1.1v.72h1.1Zm0,1.43h-1.1v.79h1.1Zm2.28-1.43h-1.15v.72h1.15Zm0,1.43h-1.15v.79h1.15Z"/><path class="cls-1" d="M157.51,96.47v.26c0,2.8,0,5.15-1.26,6.82l-1-.91c1-1.34,1-3,1-5.55v-1.7h2.25a13.24,13.24,0,0,0-.74-1.33h-1.38V93h3.87v-.7h1.4V93h3.9v1h-1.2a10.3,10.3,0,0,1-.66,1.33h2.6v1.08Zm.45,6.67v-1.06h3.57v-1.14h-2.34v-1h2.34v-1h-2a8.65,8.65,0,0,1-1,1.29l-.9-.83a6,6,0,0,0,1.61-2.5l1.15.38a5.7,5.7,0,0,1-.33.65h1.42V96.86h1.22v1.06h3v1h-3v1h2.57v1h-2.57v1.14h3.64v1.06Zm1.25-9.08a14.14,14.14,0,0,1,.69,1.33h2.44a8.82,8.82,0,0,0,.71-1.33Z"/><path class="cls-1" d="M169.33,102.15c4.3-.88,6.71-3.58,7.51-6.66h-1c-1.05,0-2.23,0-3.23.06a10.33,10.33,0,0,1-3.21,2.92l-1.13-.92a8.35,8.35,0,0,0,4.39-5l1.38.4a13.11,13.11,0,0,1-.65,1.37H174c1.16,0,2.47,0,3.52-.08l.91.86c-1.23,3.9-3.1,6.88-7.92,8.28Z"/><path class="cls-1" d="M182.59,102c3.8-.33,6-2.3,6.59-4.75-2,0-6.52,0-8.27.1V96c1.49,0,3.47.08,5.3.08,1.45,0,2.81,0,3.79-.08l.91.68c-1.14,3.6-3,5.91-7.4,6.61Zm7-7.64c-.86,0-2.29,0-3.74,0s-2.9,0-3.83,0V93.09c.79,0,1.95,0,3.15,0,1.65,0,3.4,0,4.42,0Z"/><path class="cls-1" d="M195.29,101.88c4.07-.46,6.12-2.73,6.41-6.19h-2.36c-1.5,0-3.25,0-4.29,0,0,.32,0,.8,0,1.32s0,1.1,0,1.61l-1.35,0c0-.61.05-1.46.05-2.31,0-.69,0-1.38-.05-1.93.86,0,2.47.08,4.09.08,0-.3,0-.62,0-.93s0-.86,0-1.27h1.42a12,12,0,0,0-.07,1.35c0,.27,0,.55,0,.84,1.37,0,2.58,0,3.1-.07l1,.67c-.55,4-1.83,6.94-7,8.06Z"/><path class="cls-1" d="M208.76,103.48c.05-2,.09-5.39.09-8.12,0-1.14,0-2.18,0-3l1.43,0c0,1,0,2.5-.06,4.08l.7-.76a35.36,35.36,0,0,1,4.55,2.43l-.79,1.2a27.45,27.45,0,0,0-4.46-2.57v1.69c0,1.84,0,3.67.05,5Zm5.13-8.25a13.74,13.74,0,0,0-1.25-1.29l.67-.57a11.61,11.61,0,0,1,1.29,1.24Zm1.13-.85a8.42,8.42,0,0,0-1.27-1.26l.66-.54a13.54,13.54,0,0,1,1.29,1.2Z"/><path class="cls-1" d="M220,101.92c4.3-1.09,6.43-4,6.78-7.18-1.93,0-6.21,0-8.07.13V93.51c1.31,0,2.81,0,4.27,0,1.61,0,3.2,0,4.5-.07l.84.63c-.68,4.85-2.8,7.55-7.2,8.95Z"/><path class="cls-1" d="M236.31,98.63A4.22,4.22,0,0,0,238.88,96c-1.72,0-5,0-7.25.09l0-1.16c1.26,0,2.95.07,4.5.07,1.37,0,2.62,0,3.37-.07l.92.71a7,7,0,0,1-3.08,4Zm-4.47,3.74c2.6-.9,3.2-2.86,3.2-4.84,0-.17,0-.34,0-.51l1.25,0c-.19,2.85-.59,4.8-3.49,6.26Z"/><path class="cls-1" d="M254.1,95.91a12.89,12.89,0,0,1-9.74,7l-.61-1.48A10.94,10.94,0,0,0,253,95Zm-7.3.13A16.32,16.32,0,0,0,243.91,94l1-1a22.06,22.06,0,0,1,2.89,1.9Z"/><path class="cls-1" d="M266.15,97.63l-4.21,0c-.08,2.76-.9,4.65-3.5,5.91l-1.26-1a4.61,4.61,0,0,0,3.37-4.62v-.25l-5.07,0V96.36c1.17,0,3.06.06,5,.06,2.11,0,4.27,0,5.66-.06Zm-.85-1.56a15.68,15.68,0,0,0-1-1.53l.05,0c-1,0-2.35,0-3.7,0s-2.65,0-3.54,0V93.24c.84,0,2.09.05,3.39.05s2.88,0,3.92-.05v1.24l.64-.35a13.33,13.33,0,0,1,1,1.48Zm1-1.08a11.68,11.68,0,0,0-1-1.48l.76-.39a13,13,0,0,1,1,1.44Z"/><path class="cls-1" d="M273.4,103.38c0-1.36.05-2.89.05-4.29v-.88a36.9,36.9,0,0,1-3.74,2.17l-.85-1c2.69-1.14,6.22-3.38,7.52-5.33l1.07.74a19.93,19.93,0,0,1-2.8,2.53c0,.93,0,1.94,0,3s0,2.07.06,3.06Z"/><path class="cls-1" d="M291.6,95.91a12.89,12.89,0,0,1-9.74,7l-.61-1.48A10.94,10.94,0,0,0,290.46,95Zm-7.3.13A16.32,16.32,0,0,0,281.41,94l1-1a22.06,22.06,0,0,1,2.89,1.9Z"/><path class="cls-1" d="M294.33,102.15c4.3-.88,6.71-3.58,7.51-6.66h-1c-1.05,0-2.23,0-3.23.06a10.33,10.33,0,0,1-3.21,2.92l-1.12-.92a8.36,8.36,0,0,0,4.38-5l1.38.4a13.11,13.11,0,0,1-.65,1.37H299c1.16,0,2.47,0,3.52-.08l.91.86c-1.23,3.9-3.1,6.88-7.92,8.28Zm8.31-8.21a12.89,12.89,0,0,0-1.28-1.28l.69-.58a12.79,12.79,0,0,1,1.29,1.26Zm1.4-.58a11.71,11.71,0,0,0-1.27-1.27l.67-.53a10.42,10.42,0,0,1,1.27,1.21Z"/><path class="cls-1" d="M156.47,47.4c8.7.17,13.84,4.73,13.84,9.45,0,4.23-2.82,6-5.55,6-2.24,0-3.82-1.49-4.07-4.39-.41-4.31-1.65-7.63-4.22-9.62.08,19.31.5,24.86.5,27s-2.82,3.48-6.63,3.48c-3.15,0-3.65-.83-3.65-2.9,0-2.32.25-8.45.58-19.72a53.61,53.61,0,0,1-17.16,14.08c-.41.25-1-.49-.58-.83,5.23-3.89,12.93-16.15,15.92-27.51h-5.64a52,52,0,0,0-8.45.58l-.83-2.82a78.13,78.13,0,0,0,9.28.58h7.46a64.83,64.83,0,0,0-.5-9.19c12.27.74,12.85,1.4,12.85,2.9,0,.83-.42,1.49-3.15,2.65v3.64H161c4.47-6,4.64-6.13,5.13-6.13.67,0,1,.09,3.82,2.82,3.23,3.15,3.48,3.4,3.48,4.14a.74.74,0,0,1-.83.83H156.47ZM129.7,12.52A194.86,194.86,0,0,0,160.61,3a33.08,33.08,0,0,0,3.81-2c8.62,5.47,9.37,6.79,9.37,7.62,0,1.49-1.25,1.74-5.8,1.58a313.65,313.65,0,0,1-38.12,3.23C129.37,13.43,129.2,12.6,129.7,12.52Zm3,4.14c8.13,1.16,12,6.05,12,9.94,0,3.48-2.07,5.72-5.39,5.72-2.32,0-3.56-1.66-3.64-5-.17-5.39-1.08-8.12-3.32-10.11C132,16.91,132.19,16.58,132.68,16.66ZM147.6,25c.42-5.64-.25-8-1.91-9.7-.33-.33-.16-.66.34-.58,7.21,1.49,10.85,5.47,10.85,9.7,0,3.56-2.24,6-5.38,6C148.84,30.42,147.35,28.34,147.6,25ZM163,13.1c11.1,4.39,11.6,5.13,11.6,6.21,0,.75-.83,1.41-3.48,1.66A98,98,0,0,1,158,31.82c-.41.25-.91-.08-.66-.49A64.18,64.18,0,0,0,161.94,18C162.35,16.33,162.6,15.17,163,13.1Zm44.33,41.76c0,1.16-.75,2-4.23,1.58a82.31,82.31,0,0,1-43.67,22.62c-.5.08-.74-.74-.25-.91,10.61-3.4,25.44-14.92,34.06-28.18,1.25-1.9,2-3.23,2.82-4.72C206.69,53,207.35,53.7,207.35,54.86ZM188.62,7.13a36,36,0,0,0,2.49-5.72C203,8,203.79,8.62,203.79,9.86c0,1.08-.75,1.58-4.48,1.74C193,19.56,181,29,169.15,33.9c-.5.16-.91-.42-.5-.75C176.52,26.85,183.4,17.4,188.62,7.13ZM193.76,24c11.35,7.46,11.6,8,11.6,9.12s-1,1.74-4.64,1.58c-9.61,9.19-19.23,15-30.08,18.64a.48.48,0,0,1-.42-.83c6.14-3.81,14.17-12.43,20.72-23.37C192,27.35,192.77,26,193.76,24Z"/></g><g id="編集モード"><path class="cls-2" d="M92.93,15.78h0C116.19,33.64,121.07,65.12,103.81,86c-15,18.15-42,22.32-64.05,11.3,10.17,2.86,21.22.11,27.83-7.86C76.5,78.63,74,62.37,62,53.15c-11.5-8.83-13.91-24.4-5.38-34.7S81.43,7,92.93,15.78Z"/><path class="cls-2" d="M21.42,86.07h0c-23-17.12-28.33-47.85-11.77-68.5,14.41-18,40.71-22.47,62.49-12-10-2.64-20.77.21-27.11,8.11C36.48,24.32,39.21,40.19,51.11,49c11.4,8.47,14,23.66,5.83,33.87S32.82,94.54,21.42,86.07Z"/></g></g></svg>