<svg xmlns="http://www.w3.org/2000/svg" viewBox="0 0 279.94 78.31"><defs><style>.cls-1{fill:#231815;}.cls-2{fill:#ca2639;}</style></defs><g id="レイヤー_2" data-name="レイヤー 2"><g id="レイヤー_1-2" data-name="レイヤー 1"><path class="cls-1" d="M194.14,56.14h10.44v3.13H194.14Z"/><path class="cls-1" d="M208.46,70a32.83,32.83,0,0,0,.89-4.36V65.5H210l.07.08c1.31,2.5,4.37,4.51,6.68,4.51a4.75,4.75,0,0,0,4.88-4.89c0-3.58-2.16-4.88-5-6-3.54-1.49-7.46-3.65-7.46-8.28A7.61,7.61,0,0,1,214,44.06a10,10,0,0,1,3.77-.75c5.07,0,6.9,2,6.94,2h0v.22a27.94,27.94,0,0,0-.89,4.29V50h-.71l0-.08c-1.15-2.61-3.39-4.4-5.66-4.4a5.35,5.35,0,0,0-2.54.53,4.48,4.48,0,0,0-1.9,3.69c0,3.43,2.91,4.66,5.11,5.48,3.47,1.3,7.79,3.65,7.79,8.73s-4.18,8.35-9.51,8.35a14.43,14.43,0,0,1-7.87-2l-.07,0Z"/><path class="cls-1" d="M228.56,71.73c4.32-9.47,8.57-18.83,12.68-28.34l0-.08h1.42l0,.08c4,9.4,9.58,24,11.74,28.34l.12.26-.3,0a19.32,19.32,0,0,0-2.54-.11,13.69,13.69,0,0,0-2.12.11h-.15l0-.11c-.26-.93-1.23-4.29-3.28-9.81-1.08-.07-3.32-.11-4.92-.11s-4.29,0-5.41.11a96.17,96.17,0,0,0-3.54,9.81l0,.15-.15,0a10.67,10.67,0,0,0-1.87-.11,6.85,6.85,0,0,0-1.49.11l-.3.08ZM241,59.83c1.2,0,2.91,0,4.25-.11-1.12-2.87-2.46-6.26-4.1-10l-4.4,10C237.84,59.76,239.86,59.83,241,59.83Z"/><path class="cls-1" d="M258.87,44v-.3l.19,0c.48.07,1.71.11,2.24.11s1.64,0,2.16-.11l.19,0v.34a63.51,63.51,0,0,0-.38,8.54V63.12a64.32,64.32,0,0,0,.45,8.54V72l-.19,0c-.48-.07-1.71-.11-2.23-.11s-1.64,0-2.17.11L259,72v-.33a65.91,65.91,0,0,0,.37-8.54V52.6a64.13,64.13,0,0,0-.45-8.54Z"/><path class="cls-1" d="M269.5,56.14h10.44v3.13H269.5Z"/><path class="cls-1" d="M131.45,46.41c8.7.16,13.84,4.72,13.84,9.44,0,4.23-2.82,6-5.55,6-2.24,0-3.81-1.49-4.06-4.39-.42-4.31-1.66-7.63-4.23-9.61.08,19.3.5,24.86.5,27s-2.82,3.48-6.63,3.48c-3.15,0-3.65-.83-3.65-2.9,0-2.32.25-8.45.58-19.72A53.71,53.71,0,0,1,105.1,69.78c-.42.25-1-.5-.58-.83,5.22-3.9,12.93-16.16,15.91-27.51h-5.64a52.09,52.09,0,0,0-8.45.58l-.83-2.82a80.44,80.44,0,0,0,9.28.58h7.46a66.2,66.2,0,0,0-.49-9.2c12.26.75,12.84,1.41,12.84,2.9,0,.83-.41,1.49-3.15,2.65v3.65H136c4.47-6.05,4.64-6.13,5.14-6.13.66,0,1,.08,3.81,2.81,3.23,3.15,3.48,3.4,3.48,4.15a.75.75,0,0,1-.83.83H131.45ZM104.68,11.52A192.81,192.81,0,0,0,135.59,2a31.77,31.77,0,0,0,3.82-2c8.62,5.47,9.36,6.79,9.36,7.62,0,1.5-1.24,1.74-5.8,1.58a313.47,313.47,0,0,1-38.12,3.23C104.35,12.43,104.19,11.6,104.68,11.52Zm3,4.14c8.12,1.16,12,6.05,12,10,0,3.48-2.07,5.72-5.38,5.72-2.32,0-3.57-1.66-3.65-5-.16-5.38-1.08-8.12-3.31-10.11C107,15.91,107.17,15.58,107.67,15.66ZM122.58,24c.42-5.63-.24-8-1.9-9.69-.33-.34-.17-.67.33-.58,7.21,1.49,10.86,5.47,10.86,9.69,0,3.57-2.24,6-5.39,6C123.83,29.42,122.34,27.35,122.58,24ZM138,12.1c11.1,4.39,11.6,5.14,11.6,6.21,0,.75-.83,1.41-3.48,1.66a98.86,98.86,0,0,1-13.18,10.86c-.41.25-.91-.08-.66-.5A63.6,63.6,0,0,0,136.92,17C137.34,15.33,137.58,14.17,138,12.1Zm44.33,41.77c0,1.16-.74,2-4.22,1.57a82.23,82.23,0,0,1-43.68,22.62c-.49.09-.74-.74-.24-.91,10.6-3.4,25.44-14.91,34.06-28.17,1.24-1.91,2-3.24,2.81-4.73C181.67,52,182.33,52.71,182.33,53.87ZM163.61,6.13A35,35,0,0,0,166.09.41C178,7,178.77,7.62,178.77,8.87c0,1.07-.75,1.57-4.47,1.74C168,18.56,156,28,144.13,32.9c-.5.17-.91-.41-.5-.75C151.51,25.86,158.38,16.41,163.61,6.13ZM168.74,23c11.36,7.46,11.6,8,11.6,9.11s-1,1.74-4.64,1.58c-9.61,9.2-19.22,15-30.08,18.64a.47.47,0,0,1-.41-.83c6.13-3.81,14.17-12.43,20.72-23.36C167,26.35,167.75,25,168.74,23Z"/></g><g id="編集モード"><path class="cls-2" d="M69.63,12.73h0c17.43,13.38,21.08,37,8.15,52.58-11.26,13.6-31.45,16.72-48,8.46,7.62,2.15,15.9.09,20.85-5.88,6.68-8.07,4.79-20.25-4.21-27.16-8.61-6.62-10.42-18.28-4-26S61,6.11,69.63,12.73Z"/><path class="cls-2" d="M16.05,65.39h0C-1.22,52.56-5.18,29.53,7.23,14.06,18,.59,37.74-2.77,54.05,5.06c-7.49-2-15.56.16-20.31,6.08-6.4,8-4.36,19.88,4.56,26.51C46.84,44,48.8,55.38,42.66,63S24.59,71.74,16.05,65.39Z"/></g></g></svg>