<svg width="27" height="45" viewBox="0 0 27 45" fill="none" xmlns="http://www.w3.org/2000/svg">
<line x1="3" y1="21.4597" x2="22.0919" y2="2.36785" stroke="#333333" stroke-width="3" stroke-linecap="round"/>
<line x1="1.5" y1="-1.5" x2="28.5" y2="-1.5" transform="matrix(0.707107 0.707107 0.707107 -0.707107 3 0.368164)" stroke="#333333" stroke-width="3" stroke-linecap="round"/>
<path d="M4.572 35.093C3.978 35.93 3.06 36.65 1.881 37.217C2.07 37.388 2.151 37.487 2.259 37.667C3.42 37.037 4.338 36.245 4.977 35.291L5.004 37.478C5.013 37.703 4.932 37.766 4.653 37.766C4.356 37.766 4.059 37.73 3.699 37.658C3.789 37.892 3.816 38.009 3.843 38.225C4.158 38.252 4.41 38.27 4.644 38.27C5.328 38.27 5.535 38.108 5.526 37.568L5.499 35.093H6.066C6.381 35.093 6.624 35.102 6.894 35.138V34.589C6.633 34.625 6.39 34.634 6.048 34.634H5.49V34.445C5.49 34.247 5.499 34.058 5.526 33.896H4.914C4.959 34.121 4.968 34.229 4.968 34.535V34.634H2.952C2.601 34.634 2.349 34.625 2.097 34.589V35.138C2.358 35.102 2.61 35.093 2.934 35.093H4.572ZM1.422 33.554H3.087C3.465 33.554 3.807 33.563 4.005 33.581C3.987 33.356 3.978 33.122 3.978 32.762V31.637C3.978 31.286 3.987 31.052 4.005 30.782C3.753 30.809 3.537 30.818 3.087 30.818H1.764C1.332 30.818 1.089 30.809 0.828 30.782C0.855 31.07 0.864 31.331 0.864 31.772V37.631C0.864 38.126 0.846 38.396 0.81 38.648H1.476C1.44 38.423 1.422 38.144 1.422 37.64V33.554ZM1.422 31.25H3.456V31.979H1.422V31.25ZM1.422 32.411H3.456V33.131H1.422V32.411ZM8.154 31.772C8.154 31.358 8.163 31.106 8.199 30.782C7.929 30.809 7.686 30.818 7.245 30.818H5.832C5.391 30.818 5.175 30.809 4.905 30.782C4.923 31.07 4.932 31.304 4.932 31.637V32.762C4.932 33.113 4.923 33.302 4.905 33.59C5.103 33.572 5.427 33.563 5.823 33.563H7.596V37.721C7.596 37.946 7.533 37.982 7.182 37.982C6.966 37.982 6.651 37.955 6.264 37.892C6.354 38.099 6.399 38.243 6.435 38.477C6.723 38.504 6.975 38.513 7.245 38.513C7.983 38.513 8.154 38.369 8.154 37.784V31.772ZM5.454 31.25H7.596V31.979H5.454V31.25ZM5.454 32.411H7.596V33.131H5.454V32.411ZM11.088 31.043C11.115 31.232 11.124 31.331 11.124 31.52C11.124 31.673 11.124 31.835 11.115 32.105C11.043 34.94 11.034 35.165 11.034 35.768C11.034 36.713 11.16 37.19 11.529 37.613C11.889 38.027 12.456 38.243 13.221 38.243C14.274 38.243 15.12 37.874 15.759 37.127C16.155 36.659 16.416 36.128 16.758 35.084C16.488 34.94 16.353 34.85 16.11 34.643C15.984 35.282 15.876 35.633 15.669 36.056C15.156 37.082 14.328 37.622 13.257 37.622C12.789 37.622 12.384 37.496 12.132 37.271C11.862 37.028 11.745 36.731 11.709 36.191C11.7 35.993 11.691 35.759 11.691 35.651C11.691 35.246 11.718 34.022 11.754 32.942C11.781 31.808 11.817 31.349 11.871 31.052L11.088 31.043ZM13.932 31.475C14.193 31.754 14.625 32.429 14.85 32.906L15.309 32.636C15.03 32.105 14.787 31.727 14.382 31.241L13.932 31.475ZM14.931 30.962C15.282 31.376 15.66 31.952 15.849 32.375L16.308 32.114C16.002 31.547 15.777 31.214 15.372 30.719L14.931 30.962ZM20.169 31.97C20.367 31.943 20.457 31.934 20.655 31.925C22.023 31.88 23.103 31.817 23.391 31.763C23.445 31.754 23.445 31.754 23.472 31.754L23.49 31.772L23.454 31.808C23.436 31.826 23.418 31.844 23.418 31.844C23.346 31.916 23.346 31.916 23.292 31.97C22.671 32.582 21.249 33.833 20.286 34.598C19.674 35.093 19.35 35.327 19.026 35.516L19.431 36.092C20.475 35.129 21.897 34.553 23.22 34.553C24.435 34.553 25.155 35.066 25.155 35.93C25.155 36.695 24.66 37.244 23.715 37.505C23.589 37.109 23.49 36.893 23.301 36.641C22.941 36.164 22.419 35.903 21.816 35.903C21.069 35.903 20.511 36.353 20.511 36.956C20.511 37.784 21.24 38.252 22.509 38.252C24.507 38.252 25.812 37.325 25.812 35.921C25.812 34.769 24.849 34.031 23.346 34.031C22.554 34.031 21.825 34.22 21.141 34.589L21.123 34.562C21.753 34.157 22.842 33.221 24.084 32.006C24.372 31.727 24.417 31.691 24.543 31.628L24.165 31.133C24.048 31.196 23.967 31.214 23.733 31.232C22.923 31.295 21.726 31.349 20.979 31.349C20.547 31.349 20.385 31.34 20.133 31.295L20.169 31.97ZM23.121 37.667C22.797 37.721 22.689 37.73 22.464 37.73C22.077 37.73 21.69 37.649 21.456 37.523C21.213 37.379 21.096 37.208 21.096 36.974C21.096 36.632 21.375 36.416 21.825 36.416C22.473 36.416 22.923 36.848 23.121 37.667Z" fill="#333333"/>
</svg>
