<svg width="32" height="21" viewBox="0 0 32 21" fill="none" xmlns="http://www.w3.org/2000/svg">
<g clip-path="url(#clip0_35_7777)">
<path d="M31.0063 19.4001V1.60311C31.0068 1.52407 30.9916 1.44571 30.9617 1.37255C30.9318 1.2994 30.8878 1.23288 30.8321 1.17684C30.7765 1.12079 30.7104 1.07631 30.6375 1.04596C30.5647 1.01562 30.4866 0.999999 30.4077 1H1.60504C1.52615 0.999999 1.44804 1.01562 1.37519 1.04596C1.30234 1.07631 1.23616 1.12079 1.18053 1.17684C1.12489 1.23288 1.08086 1.2994 1.05096 1.37255C1.02107 1.44571 1.00593 1.52407 1.00636 1.60311V19.4001C1.00636 19.5592 1.0694 19.7118 1.18168 19.8243C1.29395 19.9368 1.44626 20 1.60504 20H30.4077C30.5664 20 30.7187 19.9368 30.831 19.8243C30.9433 19.7118 31.0063 19.5592 31.0063 19.4001ZM28.1267 2.20299L16.0259 10.7413L3.87619 2.20299H28.1267ZM29.8089 18.8003H2.20373V2.49965L2.26232 2.54856L15.681 11.9801C15.7824 12.05 15.9027 12.0875 16.0259 12.0875C16.149 12.0875 16.2693 12.05 16.3708 11.9801L29.8057 2.50291L29.8089 18.8003Z" fill="#333333"/>
</g>
<rect x="1" y="1" width="30" height="19" stroke="#333333"/>
<defs>
<clipPath id="clip0_35_7777">
<rect x="1" y="1" width="30" height="19" fill="white"/>
</clipPath>
</defs>
</svg>
