<svg width="24" height="33" viewBox="0 0 24 33" fill="none" xmlns="http://www.w3.org/2000/svg">
<g clip-path="url(#clip0_35_7791)">
<path d="M11.85 14.7887C12.7809 14.7942 13.7032 14.6073 14.5602 14.2394C15.4173 13.8716 16.191 13.3305 16.8339 12.6494C18.1454 11.2344 18.8658 9.3617 18.8446 7.42226C18.8446 3.43522 15.712 0.0372514 11.9419 -0.0185547C10.9923 0.00272962 10.0566 0.217424 9.19079 0.612677C8.32499 1.00793 7.54688 1.57565 6.90286 2.28191C5.55577 3.6874 4.79604 5.564 4.78174 7.52149C4.80466 9.41639 5.55416 11.2282 6.87218 12.575C7.51204 13.2637 8.28272 13.8147 9.13803 14.195C9.99334 14.5754 10.9157 14.7773 11.85 14.7887ZM8.5396 3.87549C8.97583 3.38969 9.50505 2.99851 10.0951 2.72565C10.6852 2.4528 11.324 2.30395 11.9726 2.28812C14.4738 2.28812 16.5886 4.66295 16.5886 7.41605C16.6096 8.7686 16.1133 10.0771 15.2032 11.0683C14.7678 11.5278 14.2442 11.8925 13.6643 12.1399C13.0845 12.3873 12.4608 12.5122 11.8315 12.5068C11.2044 12.4934 10.5863 12.3531 10.0136 12.0944C9.44084 11.8356 8.92512 11.4635 8.49672 11.0001C7.58442 10.0777 7.06328 8.83222 7.04385 7.5277C7.05765 6.16063 7.5936 4.85194 8.5396 3.87549Z" fill="white"/>
<path d="M17.5142 17.1513C13.8539 16.6332 10.1401 16.6332 6.47973 17.1513C2.80156 17.6783 -0.012207 21.3057 -0.012207 25.5904V31.8655C-0.012207 32.1681 0.106643 32.4583 0.318178 32.6722C0.529713 32.8862 0.816585 33.0064 1.11574 33.0064C1.4149 33.0064 1.70184 32.8862 1.91338 32.6722C2.12491 32.4583 2.24369 32.1681 2.24369 31.8655V25.5842C2.24369 22.4281 4.19927 19.7742 6.79237 19.3835C8.5477 19.1408 10.3173 19.0185 12.0889 19.0177C13.7955 19.0238 15.4995 19.1481 17.1893 19.3897C19.7763 19.7494 21.7257 22.4094 21.7257 25.5904V31.8655C21.7467 32.1544 21.875 32.4245 22.0848 32.6216C22.2946 32.8188 22.5704 32.9283 22.8567 32.9283C23.1431 32.9283 23.4189 32.8188 23.6287 32.6216C23.8385 32.4245 23.9668 32.1544 23.9878 31.8655V25.5842C24.0001 21.2996 21.2108 17.6721 17.5142 17.1513Z" fill="white"/>
</g>
<defs>
<clipPath id="clip0_35_7791">
<rect width="24" height="33" fill="white"/>
</clipPath>
</defs>
</svg>
