<svg width="28" height="28" viewBox="0 0 28 28" fill="none" xmlns="http://www.w3.org/2000/svg">
<circle cx="14" cy="14" r="13.5" stroke="black"/>
<g clip-path="url(#clip0_143_1667)">
<path d="M19.933 7.43157L11.3416 17.9577L8.04746 14.1437C7.84085 13.9052 7.55059 13.7608 7.24052 13.7424C6.93044 13.724 6.62596 13.833 6.39406 14.0456C6.16215 14.2581 6.02179 14.5567 6.0039 14.8757C5.98601 15.1947 6.09205 15.508 6.29865 15.7465L10.4895 20.6007C10.6 20.7278 10.7351 20.8296 10.8863 20.8994C11.0375 20.9693 11.2013 21.0058 11.367 21.0063C11.5357 21.003 11.7018 20.9627 11.8542 20.8883C12.0066 20.8139 12.1418 20.7069 12.2509 20.5745L21.72 8.98203C21.8952 8.73401 21.9725 8.42681 21.9361 8.12247C21.8997 7.81813 21.7523 7.53932 21.5238 7.34245C21.2953 7.14557 21.0026 7.04528 20.705 7.06182C20.4073 7.07836 20.1269 7.21051 19.9203 7.43157H19.933Z" fill="#333333"/>
</g>
<defs>
<clipPath id="clip0_143_1667">
<rect width="16" height="14" fill="white" transform="translate(6 7)"/>
</clipPath>
</defs>
</svg>
