<svg width="23" height="30" viewBox="0 0 23 30" fill="none" xmlns="http://www.w3.org/2000/svg">
<g clip-path="url(#clip0_35_7767)">
<path d="M20.7212 0H2.28013C1.67575 0.00034814 1.09621 0.230955 0.66872 0.641201C0.241231 1.05145 0.000725873 1.60781 0 2.18816V27.8118C0.000725873 28.3922 0.241231 28.9486 0.66872 29.3588C1.09621 29.769 1.67575 29.9997 2.28013 30H15.4827C15.5547 30.0001 15.626 29.9865 15.6925 29.9601C15.7591 29.9337 15.8195 29.8949 15.8705 29.8461L22.7438 23.2461C22.8169 23.1889 22.8774 23.1182 22.9217 23.0382C22.9659 22.9582 22.993 22.8705 23.0014 22.7803V2.18816C23.0006 1.60781 22.7601 1.05145 22.3326 0.641201C21.9052 0.230955 21.3256 0.00034814 20.7212 0ZM1.09622 27.8118V2.18816C1.09694 1.88698 1.22195 1.59836 1.44386 1.38552C1.66577 1.17268 1.96649 1.05298 2.28013 1.05263H20.7212C21.0349 1.05298 21.3356 1.17268 21.5575 1.38552C21.7794 1.59836 21.9044 1.88698 21.9051 2.18816V22.2539H15.4827C15.3373 22.2539 15.1979 22.3094 15.0951 22.4081C14.9923 22.5068 14.9346 22.6407 14.9346 22.7803V28.9474H2.28013C1.96649 28.947 1.66577 28.8273 1.44386 28.6145C1.22195 28.4016 1.09694 28.113 1.09622 27.8118ZM21.1296 23.3066L16.0308 28.2026V23.3066H21.1296Z" fill="#333333"/>
<path d="M4.34254 6.33144H16.675C16.8203 6.33144 16.9598 6.27599 17.0626 6.17729C17.1653 6.07858 17.2231 5.94471 17.2231 5.80512C17.2231 5.66554 17.1653 5.53167 17.0626 5.43296C16.9598 5.33426 16.8203 5.27881 16.675 5.27881H4.34254C4.19717 5.27881 4.05776 5.33426 3.95497 5.43296C3.85218 5.53167 3.79443 5.66554 3.79443 5.80512C3.79443 5.94471 3.85218 6.07858 3.95497 6.17729C4.05776 6.27599 4.19717 6.33144 4.34254 6.33144Z" fill="#333333"/>
<path d="M4.34254 10.4867H13.0081C13.1535 10.4867 13.2929 10.4313 13.3957 10.3326C13.4985 10.2339 13.5562 10.1 13.5562 9.9604C13.5562 9.82081 13.4985 9.68694 13.3957 9.58824C13.2929 9.48953 13.1535 9.43408 13.0081 9.43408H4.34254C4.19717 9.43408 4.05776 9.48953 3.95497 9.58824C3.85218 9.68694 3.79443 9.82081 3.79443 9.9604C3.79443 10.1 3.85218 10.2339 3.95497 10.3326C4.05776 10.4313 4.19717 10.4867 4.34254 10.4867Z" fill="#333333"/>
<path d="M4.34254 14.6435H15.4828C15.6282 14.6435 15.7676 14.588 15.8704 14.4893C15.9732 14.3906 16.031 14.2567 16.031 14.1171C16.031 13.9775 15.9732 13.8437 15.8704 13.745C15.7676 13.6463 15.6282 13.5908 15.4828 13.5908H4.34254C4.19717 13.5908 4.05776 13.6463 3.95497 13.745C3.85218 13.8437 3.79443 13.9775 3.79443 14.1171C3.79443 14.2567 3.85218 14.3906 3.95497 14.4893C4.05776 14.588 4.19717 14.6435 4.34254 14.6435Z" fill="#333333"/>
<path d="M12.0832 17.7461H4.34254C4.19717 17.7461 4.05776 17.8015 3.95497 17.9002C3.85218 17.999 3.79443 18.1328 3.79443 18.2724C3.79443 18.412 3.85218 18.5459 3.95497 18.6446C4.05776 18.7433 4.19717 18.7987 4.34254 18.7987H12.0832C12.2286 18.7987 12.368 18.7433 12.4708 18.6446C12.5736 18.5459 12.6313 18.412 12.6313 18.2724C12.6313 18.1328 12.5736 17.999 12.4708 17.9002C12.368 17.8015 12.2286 17.7461 12.0832 17.7461Z" fill="#333333"/>
</g>
<defs>
<clipPath id="clip0_35_7767">
<rect width="23" height="30" fill="white"/>
</clipPath>
</defs>
</svg>
